# Generated from upstream sprinkler_high_top.obj for static NeoForge block rendering.
# Source asset credit: Etyl Immersive Farming / Peter.
# Mount-centering offset applied: x=0.0, z=0.0625.
mtllib sprinkler_high_top.mtl

o cube
v 0.75 0.4375 0.875
v 0.75 0.4375 0.625
v 0.75 0.1875 0.875
v 0.75 0.1875 0.625
v 0.25 0.4375 0.875
v 0.25 0.4375 0.625
v 0.25 0.1875 0.875
v 0.25 0.1875 0.625
v 1.16626587737 0.454246824527 0.625
v 1.16626587737 0.454246824527 0.375
v 0.949759526419 0.329246824527 0.625
v 0.949759526419 0.329246824527 0.375
v 1.04126587737 0.670753175473 0.625
v 1.04126587737 0.670753175473 0.375
v 0.824759526419 0.545753175473 0.625
v 0.824759526419 0.545753175473 0.375
v 1.2360174651 0.458433530659 0.65625
v 1.2360174651 0.458433530659 0.34375
v 0.911257938683 0.270933530659 0.65625
v 0.911257938683 0.270933530659 0.34375
v 1.0797674651 0.729066469341 0.65625
v 1.0797674651 0.729066469341 0.34375
v 0.755007938683 0.541566469341 0.65625
v 0.755007938683 0.541566469341 0.34375
v 0.918509526419 0.383373412263 0.5625
v 0.918509526419 0.383373412263 0.4375
v 0.485496824527 0.133373412263 0.5625
v 0.485496824527 0.133373412263 0.4375
v 0.856009526419 0.491626587737 0.5625
v 0.856009526419 0.491626587737 0.4375
v 0.422996824527 0.241626587737 0.5625
v 0.422996824527 0.241626587737 0.4375
v 0.639503175473 0.366626587737 0.4375
v 0.639503175473 0.366626587737 0.5625
v 0.702003175473 0.258373412263 0.5625
v 0.702003175473 0.258373412263 0.4375
v 0.65625 0.520864596473 0.736310270129
v 0.34375 0.520864593638 0.736310266435
v 0.65625 0.272941677632 0.926548216695
v 0.34375 0.272941674797 0.926548213
v 0.656249999069 0.558912185786 0.785894853898
v 0.343749999069 0.558912182951 0.785894850203
v 0.656249999069 0.310989266945 0.976132800463
v 0.343749999069 0.31098926411 0.976132796768
v 0.65625 0.520864596473 0.263689729871
v 0.34375 0.520864593638 0.263689733565
v 0.65625 0.272941677632 0.0734517833054
v 0.34375 0.272941674797 0.0734517869998
v 0.656249999069 0.558912185786 0.214105146102
v 0.343749999069 0.558912182951 0.214105149797
v 0.656249999069 0.310989266945 0.0238671995372
v 0.343749999069 0.31098926411 0.0238672032316
v 0.6875 0.3125 0.6875
v 0.6875 0.3125 0.3125
v 0.6875 -0.0625 0.6875
v 0.6875 -0.0625 0.3125
v 0.3125 0.3125 0.6875
v 0.3125 0.3125 0.3125
v 0.3125 -0.0625 0.6875
v 0.3125 -0.0625 0.3125
v 0.6875 0.3125 0.5
v 0.6875 -0.0625 0.5
v 0.3125 -0.0625 0.5
v 0.3125 0.3125 0.5
v 0.75 0.4375 0.375
v 0.75 0.4375 0.125
v 0.75 0.1875 0.375
v 0.75 0.1875 0.125
v 0.25 0.4375 0.375
v 0.25 0.4375 0.125
v 0.25 0.1875 0.375
v 0.25 0.1875 0.125
vt 0.5 0.625
vt 0.5 0.75
vt 0.375 0.75
vt 0.375 0.625
vt 0.5 0.625
vt 0.5 0.75
vt 0.375 0.75
vt 0.375 0.625
vt 0.25 0.75
vt 0.25 0.625
vt 0 0.625
vt 0 0.75
vt 0.25 0.75
vt 0.25 0.625
vt 0 0.625
vt 0 0.75
vt 0.25 0.625
vt 0.25 0.75
vt 0 0.75
vt 0 0.625
vt 0.25 0.75
vt 0.25 0.625
vt 0 0.625
vt 0 0.75
vt 0.84375 0.71875
vt 0.84375 0.84375
vt 0.71875 0.84375
vt 0.71875 0.71875
vt 0.84375 0.71875
vt 0.84375 0.84375
vt 0.71875 0.84375
vt 0.71875 0.71875
vt 0.8125 0.1875
vt 0.8125 0.3125
vt 0.6875 0.3125
vt 0.6875 0.1875
vt 0.8125 0.1875
vt 0.8125 0.3125
vt 0.6875 0.3125
vt 0.6875 0.1875
vt 0.84375 0.71875
vt 0.84375 0.84375
vt 0.71875 0.84375
vt 0.71875 0.71875
vt 0.84375 0.71875
vt 0.84375 0.84375
vt 0.71875 0.84375
vt 0.71875 0.71875
vt 1 0.8125
vt 1 1
vt 0.84375 1
vt 0.84375 0.8125
vt 1 0.8125
vt 1 1
vt 0.84375 1
vt 0.84375 0.8125
vt 0.6875 0.84375
vt 0.6875 1
vt 0.53125 1
vt 0.53125 0.84375
vt 0.84375 0.84375
vt 0.84375 1
vt 0.6875 1
vt 0.6875 0.84375
vt 1 0.8125
vt 1 1
vt 0.84375 1
vt 0.84375 0.8125
vt 1 0.8125
vt 1 1
vt 0.84375 1
vt 0.84375 0.8125
vt 0.84375 0.71875
vt 0.84375 0.84375
vt 0.78125 0.84375
vt 0.78125 0.71875
vt 0.84375 0.71875
vt 0.84375 0.84375
vt 0.78125 0.84375
vt 0.78125 0.71875
vt 0.96875 0.6875
vt 0.96875 0.75
vt 0.90625 0.75
vt 0.90625 0.6875
vt 0.96875 0.6875
vt 0.96875 0.75
vt 0.90625 0.75
vt 0.90625 0.6875
vt 0.84375 0.71875
vt 0.84375 0.84375
vt 0.78125 0.84375
vt 0.78125 0.71875
vt 0.84375 0.71875
vt 0.84375 0.84375
vt 0.78125 0.84375
vt 0.78125 0.71875
vt 0.78125 0.84375
vt 0.78125 0.71875
vt 0.84375 0.71875
vt 0.84375 0.84375
vt 0.78125 0.84375
vt 0.78125 0.71875
vt 0.84375 0.71875
vt 0.84375 0.84375
vt 0.78125 0.84375
vt 0.78125 0.71875
vt 0.84375 0.71875
vt 0.84375 0.84375
vt 0.78125 0.84375
vt 0.78125 0.71875
vt 0.84375 0.71875
vt 0.84375 0.84375
vt 0.65625 0.5
vt 0.65625 0.65625
vt 0.5 0.65625
vt 0.5 0.5
vt 0.65625 0.5
vt 0.65625 0.65625
vt 0.5 0.65625
vt 0.5 0.5
vt 0.53125 0.5
vt 0.53125 0.65625
vt 0.5 0.65625
vt 0.5 0.5
vt 0.53125 0.5
vt 0.53125 0.65625
vt 0.5 0.65625
vt 0.5 0.5
vt 0.53125 0.5
vt 0.53125 0.65625
vt 0.5 0.65625
vt 0.5 0.5
vt 0.53125 0.5
vt 0.53125 0.65625
vt 0.5 0.65625
vt 0.5 0.5
vt 0.5 0.65625
vt 0.65625 0.65625
vt 0.65625 0.5
vt 0.5 0.5
vt 0.5 0.65625
vt 0.65625 0.65625
vt 0.65625 0.5
vt 0.5 0.5
vt 0.5 0.65625
vt 0.53125 0.65625
vt 0.53125 0.5
vt 0.5 0.5
vt 0.5 0.65625
vt 0.53125 0.65625
vt 0.53125 0.5
vt 0.5 0.5
vt 0.5 0.65625
vt 0.53125 0.65625
vt 0.53125 0.5
vt 0.5 0.5
vt 0.5 0.65625
vt 0.53125 0.65625
vt 0.53125 0.5
vt 0.5 0.5
vt 0.5 0.84375
vt 0.5 0.75
vt 0.6875 0.75
vt 0.6875 0.84375
vt 0.6875 0.65625
vt 0.6875 0.75
vt 0.5 0.75
vt 0.5 0.65625
vt 0.6875 0.65625
vt 0.6875 0.75
vt 0.5 0.75
vt 0.5 0.65625
vt 0.5 0.84375
vt 0.5 0.75
vt 0.6875 0.75
vt 0.6875 0.84375
vt 0.1875 0.8125
vt 0.1875 0.625
vt 0 0.625
vt 0 0.8125
vt 0.5 0.8125
vt 0.5 0.625
vt 0.3125 0.625
vt 0.3125 0.8125
vt 0.5 0.65625
vt 0.5 0.75
vt 0.6875 0.75
vt 0.6875 0.65625
vt 0.6875 0.65625
vt 0.6875 0.75
vt 0.5 0.75
vt 0.5 0.65625
vt 0.5 0.84375
vt 0.5 0.75
vt 0.6875 0.75
vt 0.6875 0.84375
vt 0.5 0.84375
vt 0.5 0.75
vt 0.6875 0.75
vt 0.6875 0.84375
vt 0.5 0.625
vt 0.5 0.75
vt 0.375 0.75
vt 0.375 0.625
vt 0.5 0.625
vt 0.5 0.75
vt 0.375 0.75
vt 0.375 0.625
vt 0.25 0.75
vt 0.25 0.625
vt 0 0.625
vt 0 0.75
vt 0.25 0.75
vt 0.25 0.625
vt 0 0.625
vt 0 0.75
vt 0.25 0.625
vt 0.25 0.75
vt 0 0.75
vt 0 0.625
vt 0.25 0.75
vt 0.25 0.625
vt 0 0.625
vt 0 0.75
vn 1 2.220446049250313e-15 0
vn -1 -2.220446049250313e-15 0
vn -2.220446049250313e-15 1 0
vn 2.220446049250313e-15 -1 0
vn 0 0 1
vn 0 0 -1
vn 0.49999999999999983 -0.8660254037844388 0
vn -0.49999999999999983 0.8660254037844388 0
vn 0.8660254037844387 0.49999999999999994 0
vn -0.8660254037844387 -0.49999999999999994 0
vn 0 0 1
vn 0 0 -1
vn 0.4999999999999999 -0.8660254037844387 0
vn -0.5000000000000001 0.8660254037844386 0
vn 0.8660254037844384 0.5000000000000004 0
vn -0.8660254037844387 -0.49999999999999994 0
vn 0 0 1
vn 0 0 -1
vn 0.5000000000000002 -0.8660254037844387 0
vn -0.5000000000000003 0.8660254037844385 0
vn 0.8660254037844387 0.49999999999999994 0
vn -0.8660254037844386 -0.5000000000000001 0
vn 0 0 1
vn 0 0 -1
vn -0.49999999999999994 0.8660254037844387 0
vn 0 0 1
vn 0.49999999999999994 -0.8660254037844387 0
vn 0 0 -1
vn 1.490116147975548e-8 -0.6087614290087249 -0.7933533402912317
vn -1.490116155080975e-8 0.6087614290087248 0.7933533402912321
vn -3.36854430350253e-16 0.7933533402912326 -0.608761429008724
vn 5.499870349629381e-17 -0.7933533402912327 0.6087614290087241
vn 1 9.07125327527921e-9 1.1821886872459162e-8
vn -1 -9.07125271156776e-9 -1.1821887305010177e-8
vn 1.490116150338945e-8 -0.6087614290087248 0.7933533402912318
vn -1.4901161503389454e-8 0.6087614290087248 -0.7933533402912321
vn -3.2941058834275165e-16 0.7933533402912327 0.6087614290087241
vn 5.1854832186463067e-17 -0.7933533402912327 -0.6087614290087241
vn 1 9.07125327527921e-9 -1.182188687245916e-8
vn -1 -9.071252711567757e-9 1.1821887305010172e-8
vn 1 -1.480297366166874e-16 0
vn -1 1.480297366166874e-16 0
vn 1.480297366166874e-16 1 0
vn -1.480297366166874e-16 -1 0
vn 0 0 1
vn 0 0 -1
vn 1 -1.480297366166874e-16 0
vn -1.480297366166874e-16 -1 0
vn -1 1.480297366166874e-16 0
vn 1.480297366166874e-16 1 0
vn 1 2.220446049250313e-15 0
vn -1 -3.1086244689504383e-15 0
vn -2.220446049250313e-15 1 0
vn 2.220446049250313e-15 -1 0
vn 0 0 1
vn 0 0 -1
usemtl m_877ad5f3-804d-488f-09c9-a7c69cd6a4b2
f 4/1/1 2/2/1 1/3/1 3/4/1
f 7/5/2 5/6/2 6/7/2 8/8/2
f 1/9/3 2/10/3 6/11/3 5/12/3
f 4/13/4 3/14/4 7/15/4 8/16/4
f 3/17/5 1/18/5 5/19/5 7/20/5
f 8/21/6 6/22/6 2/23/6 4/24/6
f 12/25/7 10/26/7 9/27/7 11/28/7
f 15/29/8 13/30/8 14/31/8 16/32/8
f 9/33/9 10/34/9 14/35/9 13/36/9
f 12/37/10 11/38/10 15/39/10 16/40/10
f 11/41/11 9/42/11 13/43/11 15/44/11
f 16/45/12 14/46/12 10/47/12 12/48/12
f 20/49/13 18/50/13 17/51/13 19/52/13
f 23/53/14 21/54/14 22/55/14 24/56/14
f 17/57/15 18/58/15 22/59/15 21/60/15
f 20/61/16 19/62/16 23/63/16 24/64/16
f 19/65/17 17/66/17 21/67/17 23/68/17
f 24/69/18 22/70/18 18/71/18 20/72/18
f 28/73/19 36/74/19 35/75/19 27/76/19
f 31/77/20 34/78/20 33/79/20 32/80/20
f 25/81/21 26/82/21 30/83/21 29/84/21
f 28/85/22 27/86/22 31/87/22 32/88/22
f 27/89/23 35/90/23 34/91/23 31/92/23
f 32/93/24 33/94/24 36/95/24 28/96/24
f 30/97/25 33/98/25 34/99/25 29/100/25
f 29/101/26 34/102/26 35/103/26 25/104/26
f 25/105/27 35/106/27 36/107/27 26/108/27
f 26/109/28 36/110/28 33/111/28 30/112/28
f 40/113/29 38/114/29 37/115/29 39/116/29
f 43/117/30 41/118/30 42/119/30 44/120/30
f 37/121/31 38/122/31 42/123/31 41/124/31
f 40/125/32 39/126/32 43/127/32 44/128/32
f 39/129/33 37/130/33 41/131/33 43/132/33
f 44/133/34 42/134/34 38/135/34 40/136/34
f 45/137/35 46/138/35 48/139/35 47/140/35
f 50/141/36 49/142/36 51/143/36 52/144/36
f 50/145/37 46/146/37 45/147/37 49/148/37
f 51/149/38 47/150/38 48/151/38 52/152/38
f 49/153/39 45/154/39 47/155/39 51/156/39
f 46/157/40 50/158/40 52/159/40 48/160/40
f 55/161/41 62/162/41 61/163/41 53/164/41
f 57/165/42 64/166/42 63/167/42 59/168/42
f 53/169/43 61/170/43 64/171/43 57/172/43
f 59/173/44 63/174/44 62/175/44 55/176/44
f 55/177/45 53/178/45 57/179/45 59/180/45
f 60/181/46 58/182/46 54/183/46 56/184/46
f 54/185/47 61/186/47 62/187/47 56/188/47
f 56/189/48 62/190/48 63/191/48 60/192/48
f 60/193/49 63/194/49 64/195/49 58/196/49
f 58/197/50 64/198/50 61/199/50 54/200/50
f 68/201/51 66/202/51 65/203/51 67/204/51
f 71/205/52 69/206/52 70/207/52 72/208/52
f 65/209/53 66/210/53 70/211/53 69/212/53
f 68/213/54 67/214/54 71/215/54 72/216/54
f 67/217/55 65/218/55 69/219/55 71/220/55
f 72/221/56 70/222/56 66/223/56 68/224/56
